<svg width="195" height="38" viewBox="0 0 195 38" fill="none" xmlns="http://www.w3.org/2000/svg">
<path fill-rule="evenodd" clip-rule="evenodd" d="M2.68161 0.162085C1.59555 0.482182 0.740465 1.22388 0.231535 2.28718L0.0321197 2.70386L0.00991602 12.8906C-0.0121206 23.0206 -0.0112023 23.0802 0.161585 23.5925C0.628695 24.9766 1.81275 25.9113 3.33653 26.0986L4.06358 26.188L4.25648 26.5992C4.47234 27.0592 4.79329 27.2803 5.12451 27.1973C5.41733 27.1239 5.66649 26.7775 5.66649 26.4436V26.1632H6.44437H7.22225L7.44128 26.8924C7.83276 28.1961 7.94812 29.014 7.973 30.6634L7.9962 32.2052L8.21331 32.3927C8.60605 32.7319 9.03677 32.5892 9.32883 32.0231C9.59077 31.5154 9.32341 28.1065 8.92257 26.8433C8.83042 26.5527 8.75496 26.2809 8.75496 26.2391C8.75496 26.1974 9.08434 26.1632 9.48693 26.1632H10.2189L10.406 26.9341C10.8319 28.6879 10.9415 31.404 10.6682 33.429C10.6145 33.827 10.5949 34.2499 10.6248 34.3688C10.6982 34.6606 11.1759 34.892 11.4809 34.7836C11.9365 34.6216 12.012 34.3955 12.1914 32.6548C12.3524 31.0928 12.3534 30.9838 12.2189 29.4134C12.1423 28.5196 12.008 27.4883 11.9205 27.1216C11.6778 26.1061 11.6454 26.1632 12.4639 26.1632C13.2643 26.1632 13.1764 26.0715 13.382 27.1216C13.8085 29.2988 13.7762 32.8129 13.31 34.9815C13.1287 35.825 13.1414 36.0504 13.3839 36.2924C13.8543 36.7621 14.5398 36.4225 14.6463 35.6672C14.6757 35.459 14.753 35.028 14.8181 34.7095C15.2176 32.7563 15.2101 28.7655 14.8036 27.0449C14.7378 26.7662 14.6834 26.4539 14.6827 26.3507L14.6815 26.1632H16.875H19.0685L19.1751 26.8924C19.2337 27.2935 19.3174 27.9029 19.361 28.2466C19.4504 28.9502 19.4747 32.5587 19.3955 33.3535C19.3185 34.1255 19.0361 35.8765 18.8841 36.5241C18.7332 37.1666 18.7866 37.3938 19.1431 37.627C19.3956 37.7921 19.8506 37.7362 20.0442 37.5162C20.2338 37.301 20.4989 35.9618 20.7739 33.8302C20.9761 32.2626 20.934 28.5717 20.7014 27.4814C20.6592 27.2834 20.5994 26.906 20.5686 26.6424L20.5125 26.1632L22.3341 26.1682L24.1556 26.1731L24.6003 26.7307C25.0108 27.2455 26.241 28.6102 26.9619 29.3509C27.2672 29.6645 27.4975 29.7274 27.9225 29.6135C28.3272 29.505 28.4082 28.7958 28.0579 28.4281C27.0884 27.4101 26.0707 26.302 26.0476 26.2391C26.0312 26.1944 27.2826 26.1621 29.0944 26.1605C30.7854 26.159 32.4266 26.1246 32.7415 26.0841C34.2466 25.8905 35.5671 24.6747 35.8852 23.1899C35.9424 22.9231 35.9636 19.4423 35.9482 12.8293L35.9252 2.87054L35.7368 2.45385C35.6333 2.22467 35.4873 1.92466 35.4126 1.78716C35.2623 1.51056 34.4682 0.662106 34.3596 0.662106C34.3217 0.662106 34.1889 0.588687 34.0646 0.498933C33.9401 0.409095 33.5574 0.259089 33.214 0.165585C32.596 -0.00283929 32.4399 -0.004506 17.8968 0.00174427C3.86324 0.00782787 3.18061 0.0150782 2.68161 0.162085ZM33.2938 1.66215C33.8369 1.965 34.0162 2.13892 34.275 2.61336L34.5061 3.03721V13.121V23.2048L34.2876 23.5381C33.9676 24.0264 33.6364 24.3316 33.2123 24.5296C32.8678 24.6902 32.6642 24.707 30.7583 24.7311L28.68 24.7572L28.1289 24.1802C27.2348 23.2438 26.9312 22.9011 26.5068 22.3492C26.0929 21.8108 25.5257 20.9461 25.3461 20.5796C25.2901 20.4651 25.2209 20.3525 25.1924 20.3296C25.0793 20.2386 24.2808 18.6807 24.2808 18.5512C24.2808 18.4247 24.5553 18.4129 27.4885 18.4129C30.9297 18.4129 30.8112 18.4268 31.0426 17.9951C31.142 17.8096 31.0451 17.5151 30.8172 17.3102C30.6758 17.1831 30.4142 17.1632 28.6198 17.1435L26.583 17.1212L26.5306 16.8711C26.4403 16.4408 25.7756 15.31 25.0397 14.3351C24.8519 14.0863 24.6982 13.8518 24.6982 13.8143C24.6982 13.7768 26.0446 13.746 27.6902 13.746C30.9699 13.746 30.8287 13.7672 31.0256 13.2458C31.1345 12.9574 31.0229 12.716 30.6842 12.507C30.4018 12.3327 30.3262 12.3293 26.7218 12.3293H23.0474L22.6416 12.0509C21.9613 11.5842 21.1267 11.0965 20.8176 10.9849C20.6564 10.9266 20.5245 10.8551 20.5245 10.8256C20.5245 10.7963 20.3649 10.7253 20.1698 10.6679C19.9747 10.6105 19.7023 10.5137 19.5646 10.453C18.4991 9.98318 15.756 9.56866 14.7804 9.73C14.4735 9.78075 13.9407 9.84692 13.5963 9.87709C12.0801 10.0098 10.0047 10.8215 8.39787 11.9106C7.39303 12.5916 7.21724 12.9206 7.62408 13.3588C7.81557 13.5651 7.96932 13.621 8.24219 13.5835C8.30446 13.5749 8.64511 13.3687 8.99912 13.1252C10.2803 12.2443 11.5095 11.6874 12.9703 11.3263C13.9655 11.0803 16.3235 11.0058 17.2691 11.1906C18.3883 11.4092 19.3568 11.719 20.2324 12.1386C21.0873 12.5484 21.0925 12.5537 20.994 12.9223C20.9146 13.2191 20.9264 13.2623 21.1493 13.4947C21.3765 13.7315 21.4275 13.746 22.0311 13.746H22.6718L23.3428 14.4438C23.9824 15.1089 24.6879 16.0727 25.0408 16.7633C25.2452 17.1633 25.2153 17.1775 24.2325 17.1454L23.4878 17.1212L23.2142 16.7045C22.7755 16.0365 21.974 15.188 21.7394 15.1432C21.5207 15.1015 21.1191 15.2635 21.0077 15.4385C20.8405 15.701 20.9468 16.042 21.318 16.4333C21.7038 16.8401 21.8072 17.1628 21.5517 17.1628C21.3106 17.1628 20.9419 17.584 20.9419 17.8594C20.9419 18.3097 21.128 18.4129 21.9403 18.4129H22.6623L23.0578 19.1837C23.857 20.7416 24.1069 21.1702 24.9774 22.4744C25.26 22.8977 25.5569 23.2659 25.6372 23.2925C25.7175 23.3192 25.7833 23.3933 25.7833 23.4573C25.7833 23.5212 25.9895 23.8042 26.2415 24.0861C26.4935 24.3681 26.679 24.632 26.6539 24.6727C26.6287 24.7132 26.1971 24.7465 25.6948 24.7465H24.7815L24.4092 24.2673C23.9351 23.657 22.6977 21.7358 22.6961 21.6074C22.6954 21.554 22.6662 21.4978 22.6311 21.4824C22.5411 21.4432 21.7963 20.1249 21.2412 19.0224C20.8337 18.213 20.6705 17.9877 20.0013 17.3116C19.3437 16.6471 19.1144 16.4755 18.4377 16.1423C16.8874 15.3787 15.5934 15.2087 14.0137 15.5612C11.4045 16.1434 9.41531 18.2832 9.10137 20.8454C8.99369 21.7242 9.1093 23.0778 9.34812 23.7343C9.61005 24.4546 9.66214 24.6463 9.60989 24.6986C9.58351 24.7249 9.2497 24.7465 8.86815 24.7465C8.22992 24.7465 8.16415 24.7307 8.04445 24.5484C7.85497 24.2596 7.76765 23.9145 7.58159 22.7202L7.41532 21.6523L7.58326 20.6206C7.67558 20.0533 7.84612 19.3338 7.96223 19.0218C8.16139 18.4865 8.5588 17.6709 8.66506 17.5795C8.69169 17.5566 8.76974 17.4253 8.8386 17.2878C8.97149 17.0221 10.6237 15.3294 10.7502 15.3294C10.7914 15.3294 11.0085 15.2062 11.2328 15.0555C12.4342 14.2483 14.662 13.729 16.1382 13.9122C16.9709 14.0155 18.0683 14.2773 18.4064 14.4534C18.7195 14.6165 19.2259 14.614 19.3916 14.4485C19.5823 14.2581 19.6392 13.9424 19.5295 13.6819C19.4219 13.4264 18.872 13.1522 18.0546 12.9461C17.7832 12.8778 17.4298 12.7851 17.2691 12.7402C16.7818 12.604 14.8652 12.5488 14.1186 12.6495C12.6403 12.8488 11.1747 13.4468 9.84795 14.392C9.32024 14.7681 8.00371 16.0353 8.00371 16.1674C8.00371 16.2041 7.95446 16.2838 7.8942 16.3444C7.6977 16.5419 7.03685 17.6935 6.85071 18.1629C6.27667 19.6098 6.22142 19.9204 6.22016 21.7047C6.21916 23.1972 6.23803 23.4281 6.4008 23.9131C6.68861 24.7708 6.70522 24.7465 5.83135 24.7465C5.08686 24.7465 5.07701 24.7438 4.98878 24.5173C4.69079 23.7527 4.56574 21.3032 4.75514 19.9433C4.92167 18.7481 5.48995 17.2653 6.25188 16.0378C6.67609 15.3544 6.72609 14.9786 6.42517 14.7353C6.13761 14.5028 5.73978 14.5339 5.48619 14.8086C4.79629 15.5558 3.92234 17.5128 3.48553 19.2879C3.23253 20.316 3.20782 22.8585 3.44112 23.856C3.52493 24.2141 3.57159 24.564 3.54488 24.6335C3.48144 24.7986 3.09363 24.7203 2.56141 24.435C2.11291 24.1945 1.92393 24.009 1.64714 23.5381C1.4529 23.2078 1.4509 23.178 1.42627 20.2671C1.41267 18.6514 1.43362 17.3295 1.47293 17.3295C1.51225 17.3295 1.61734 17.3846 1.70649 17.4518C2.11976 17.7639 2.48745 17.511 2.83211 16.6775C3.29288 15.5629 4.27534 13.8213 4.70306 13.3607C4.75089 13.3092 4.94012 13.0841 5.12351 12.8606C6.68861 10.9532 9.11172 9.43249 11.7595 8.69587C12.6754 8.44103 12.8221 8.41695 14.0013 8.32802C15.5428 8.21169 17.0348 8.32344 18.3997 8.65737C18.9486 8.79171 19.5373 8.9603 19.708 9.03205C20.1784 9.22973 20.5474 9.20031 20.8035 8.94455C20.9256 8.82263 21.0686 8.75063 21.128 8.78113C21.1863 8.81113 21.328 8.88988 21.4427 8.95614C21.6174 9.05706 22.3625 9.07689 26.0183 9.07789C29.1168 9.07881 30.4382 9.05164 30.5676 8.98447C31.1021 8.70704 31.2113 8.27002 30.8446 7.87509L30.6473 7.66241H26.0287H21.4101L21.1822 7.88042L20.9543 8.09843L20.3846 7.88242C17.5503 6.80787 14.1977 6.64745 11.3792 7.45132C9.48902 7.99051 8.05104 8.67604 6.58469 9.73709C4.64588 11.14 3.20181 12.8656 2.07377 15.1279C1.78996 15.6971 1.52435 16.1628 1.48362 16.1628C1.44188 16.1628 1.40941 14.9714 1.40941 13.4387V10.7147L1.6519 10.9466C1.81918 11.1066 1.98771 11.1812 2.19497 11.1871C2.46725 11.1948 2.57226 11.12 3.3089 10.3936C4.26716 9.44874 4.34847 9.37832 5.16566 8.78613C5.50998 8.53662 5.82926 8.30261 5.87517 8.26619C6.13828 8.0571 8.11156 7.01547 8.88217 6.67887C10.8523 5.81825 13.2863 5.25231 15.04 5.24706C15.4413 5.24589 15.5588 5.21072 15.7286 5.04105C16.047 4.72328 15.9524 4.19018 15.5448 4.00475C14.9857 3.75041 12.152 4.16159 10.174 4.78412C9.31014 5.05596 7.51415 5.81725 6.87684 6.18176C6.78502 6.23427 6.54086 6.36577 6.33427 6.47394C5.78511 6.76162 4.64613 7.48557 4.24747 7.80033C3.44179 8.43653 2.91517 8.90672 2.2817 9.5555C1.86625 9.98101 1.49998 10.3292 1.46784 10.3292C1.4357 10.3292 1.41025 8.70729 1.41125 6.72487C1.41292 3.41664 1.4256 3.09313 1.56525 2.7872C1.85983 2.14217 2.33236 1.75157 3.16233 1.46722C3.23119 1.44364 9.95488 1.43097 18.1038 1.43906L32.9202 1.45381L33.2938 1.66215ZM133.379 13.4543V24.1631H134.506H135.633V13.4543V2.74553H134.506H133.379V13.4543ZM47.1522 3.79541C46.4862 3.87558 45.2746 4.19134 44.7881 4.4116C43.8669 4.82862 42.8163 5.71516 42.4325 6.39936C42.0078 7.15656 41.8767 7.65091 41.8326 8.66304C41.7968 9.48433 41.8181 9.72367 41.9807 10.3298C42.2713 11.4122 42.579 11.9428 43.3696 12.7251C43.7518 13.1032 44.0981 13.4127 44.1391 13.4127C44.1801 13.4127 44.4665 13.5661 44.7756 13.7536C45.0847 13.941 45.4891 14.1478 45.6743 14.213C45.8594 14.2783 46.0517 14.3625 46.1016 14.4004C46.1514 14.4382 46.5491 14.5935 46.9852 14.7454C48.4775 15.2653 50.2082 16.0288 50.6419 16.3585C51.0595 16.6758 51.5424 17.2496 51.7324 17.654C51.9269 18.0684 51.9511 18.2202 51.9472 18.9962C51.9415 20.112 51.8072 20.461 51.098 21.2047C50.4805 21.8521 49.5616 22.1923 48.0457 22.3346C46.317 22.4969 44.0762 22.182 42.11 21.5005C41.8389 21.4066 41.5853 21.3297 41.5466 21.3297C41.5078 21.3297 41.4761 21.8115 41.4761 22.4004V23.4711L41.7891 23.61C42.8313 24.0726 44.328 24.3269 46.3592 24.3863C47.5901 24.4223 48.1507 24.4021 48.8633 24.2965C51.3912 23.9214 53.0779 22.8538 53.8796 21.1214C54.2265 20.3717 54.3296 19.8276 54.3303 18.7429C54.3314 16.959 53.627 15.6286 52.1605 14.6446C51.5729 14.2505 50.0695 13.499 49.5311 13.3304C49.3475 13.2729 49.1616 13.1929 49.1179 13.1526C49.0744 13.1123 48.989 13.0793 48.9283 13.0793C48.741 13.0793 47.3209 12.509 46.4335 12.0774C45.4639 11.6058 44.7457 10.9876 44.4858 10.4009C44.2386 9.84309 44.1193 8.93413 44.221 8.38461C44.3387 7.74867 44.4888 7.43107 44.8786 6.99288C45.3184 6.49845 45.8739 6.20543 46.7856 5.98701C48.1792 5.65307 50.4266 5.89867 52.3274 6.59253C53.1701 6.90013 53.0803 6.95605 53.4851 5.87125C53.6841 5.33789 53.8338 4.89037 53.8176 4.87671C53.8014 4.86304 53.544 4.75562 53.2456 4.63795C52.4591 4.32785 51.565 4.09259 50.6407 3.95258C49.8163 3.82766 47.6828 3.73157 47.1522 3.79541ZM169.773 14.121V24.1631H170.983H172.193V14.121V4.07892H170.983H169.773V14.121ZM177.786 14.1191V24.1737L181.605 24.1421C185.153 24.1127 185.489 24.0973 186.342 23.9246C187.952 23.5987 189.153 23.1331 190.336 22.3761C190.936 21.9927 192.009 20.9245 192.428 20.2932C192.853 19.6539 193.39 18.5661 193.536 18.0487C193.603 17.8135 193.711 17.43 193.776 17.1963C193.939 16.6129 194.147 14.7734 194.147 13.91C194.147 13.2386 193.977 11.5787 193.852 11.0351C193.44 9.23773 192.688 7.84542 191.511 6.70404C190.209 5.44182 189.249 4.91979 187.26 4.39402L186.259 4.12917L182.022 4.09692L177.786 4.06459V14.1191ZM186.259 6.31827C187.12 6.53436 187.995 6.86179 188.316 7.08922C188.438 7.17531 188.57 7.24623 188.609 7.24689C188.734 7.24889 189.695 8.10885 190.044 8.53145C191.376 10.1446 191.961 13.2041 191.47 15.9792C190.866 19.387 189.091 21.2053 185.666 21.9242C184.983 22.0675 184.436 22.1049 182.523 22.139L180.207 22.1803V14.1234V6.06659L182.857 6.09826C185.269 6.1271 185.575 6.14693 186.259 6.31827ZM62.5945 9.01072C61.3559 9.2744 60.4092 9.775 59.5715 10.6095C58.6979 11.4798 58.7359 11.4301 58.35 12.2074C57.5326 13.8541 57.2468 15.9257 57.5077 18.312C57.8111 21.0865 59.3288 23.1649 61.6763 24.0209C63.1913 24.5732 65.774 24.5286 67.4862 23.9205L68.1454 23.6864L68.1688 22.6791L68.1922 21.6719L67.4636 21.9178C65.462 22.5933 63.175 22.6015 62.0246 21.9373C61.0103 21.3517 60.3739 20.402 59.9981 18.9129C59.8248 18.2261 59.7985 17.9279 59.7996 16.6628C59.8011 15.0316 59.9522 14.1737 60.4193 13.1452C61.0806 11.6891 62.5383 10.826 64.3504 10.8173C65.0947 10.8138 66.8014 11.129 67.4079 11.382C67.571 11.4501 67.718 11.492 67.7348 11.4752C67.7516 11.4585 67.8945 11.0906 68.0524 10.6579C68.2104 10.225 68.3634 9.81101 68.3926 9.73775C68.4715 9.53983 67.7605 9.27123 66.5212 9.0308C65.1842 8.77146 63.753 8.76421 62.5945 9.01072ZM78.0786 8.87063C78.0327 8.88622 77.7167 8.98205 77.3763 9.08356C76.3609 9.3864 75.1852 10.3292 74.5253 11.3697C74.3678 11.6181 74.1978 11.8231 74.1477 11.8253C74.092 11.8277 74.0171 11.4472 73.9557 10.8501C73.9004 10.3114 73.8333 9.69267 73.8067 9.47499L73.7583 9.07914H72.8091H71.8599V16.6211V24.1631H73.0285H74.1972V19.8388C74.1972 14.5678 74.2073 14.4887 75.0874 12.8801C75.2896 12.5105 76.198 11.6415 76.6397 11.395C77.2685 11.0441 77.9101 10.8928 78.7464 10.8981C79.1596 10.9007 79.6855 10.9395 79.9149 10.9841C80.1445 11.0289 80.339 11.0588 80.3471 11.0506C80.3738 11.024 80.6142 9.54558 80.6405 9.24581C80.6663 8.95413 80.6662 8.95413 80.2489 8.89897C79.8158 8.84163 78.225 8.82088 78.0786 8.87063ZM87.6779 9.02814C86.4969 9.32365 85.8043 9.72742 84.9233 10.634C84.2208 11.357 84.0511 11.5766 83.7742 12.1209C83.4009 12.8549 83.2871 13.1356 83.1611 13.6337C83.0932 13.9017 83.0023 14.2587 82.9591 14.427C82.8121 14.9985 82.7289 16.7316 82.8018 17.7055C82.9225 19.3208 83.3827 20.6727 84.1816 21.7594C84.5308 22.2343 85.5133 23.1573 85.8504 23.3271C85.9833 23.394 86.1858 23.5094 86.3006 23.5834C86.9661 24.013 88.2353 24.3166 89.6395 24.3821C91.434 24.4658 92.9756 24.2396 94.4114 23.682L94.9817 23.4604V22.4686C94.9817 21.5626 94.9691 21.4808 94.8356 21.5218C94.7553 21.5466 94.4642 21.6421 94.1887 21.7341C93.1833 22.0698 92.8297 22.1574 91.9321 22.293C90.8417 22.4577 89.4563 22.4746 88.763 22.3317C87.5134 22.074 86.2708 21.1097 85.7402 19.986C85.4446 19.36 85.132 18.0382 85.132 17.4143V16.9962H90.3989H95.6657L95.6287 15.5169C95.5882 13.8985 95.4605 13.2452 94.9766 12.1796C94.4413 11.001 93.4872 10.0099 92.3106 9.41066C91.159 8.82405 89.1548 8.65854 87.6779 9.02814ZM103.788 9.02981C103.015 9.2249 102.158 9.58916 101.987 9.79559C101.933 9.85992 101.843 9.91251 101.786 9.91251C101.649 9.91251 100.426 11.1392 100.362 11.3402C100.335 11.4258 100.283 11.4959 100.248 11.4959C100.117 11.4959 99.4079 13.0574 99.2034 13.7951C98.7371 15.4771 98.732 17.9827 99.1917 19.5379C99.9349 22.0523 101.706 23.6931 104.289 24.2608C104.948 24.4056 107.677 24.4057 108.462 24.2611C109.144 24.1354 110.325 23.7884 110.654 23.6168C110.78 23.5512 110.93 23.4973 110.988 23.4969C111.065 23.4966 111.092 23.2406 111.092 22.4964C111.092 21.3991 111.076 21.3709 110.597 21.6181C110.244 21.8003 109.244 22.066 108.212 22.2519C107.044 22.4621 105.51 22.4809 104.715 22.2946C103.14 21.9255 102.005 20.7986 101.498 19.0988C101.33 18.5339 101.144 17.1892 101.217 17.0587C101.236 17.0243 103.616 16.9962 106.506 16.9962H111.76L111.759 15.8503C111.757 13.1199 110.919 11.1723 109.198 9.90151C107.849 8.90522 105.672 8.55428 103.788 9.02981ZM121.317 9.02839C120.668 9.19098 120.263 9.36565 119.307 9.89401C119.201 9.9526 118.872 10.2658 118.576 10.59C118.138 11.0686 118.029 11.1505 117.994 11.0251C117.91 10.7239 117.693 9.617 117.669 9.37082L117.644 9.12081L116.705 9.09723L115.766 9.07364V16.6184V24.1631H116.893H118.02L118.022 20.0588C118.025 14.8811 118.114 13.9168 118.695 12.746C118.919 12.2959 119.567 11.4959 119.708 11.4959C119.747 11.4959 119.881 11.4223 120.006 11.3325C120.13 11.2426 120.565 11.0738 120.972 10.9575C122.544 10.5078 124.421 10.7505 125.247 11.5105C125.636 11.8693 125.983 12.505 126.13 13.1299C126.194 13.4048 126.236 15.268 126.26 18.8504L126.294 24.1631H127.42H128.546L128.512 18.5171C128.474 12.3044 128.479 12.369 127.946 11.2699C127.601 10.5592 126.843 9.78517 126.149 9.43432C124.954 8.83063 122.821 8.65145 121.317 9.02839ZM138.22 9.13264C138.22 9.19415 138.928 10.9961 139.1 11.3709C139.222 11.6377 139.831 13.1316 140.239 14.1627C140.375 14.5065 140.688 15.2752 140.936 15.8711C141.78 17.9039 142.561 19.8359 142.561 19.8954C142.562 19.9279 142.621 20.0671 142.693 20.2046C142.765 20.3421 142.95 20.7734 143.105 21.163C143.259 21.5526 143.594 22.3776 143.849 22.9964C144.331 24.1649 144.369 24.3186 144.232 24.5602C144.187 24.6397 144.015 25.0611 143.849 25.4965C143.278 26.9965 142.924 27.6213 142.351 28.1463C141.639 28.7976 140.992 29.0312 139.89 29.0353C139.454 29.037 138.936 29.0096 138.739 28.9744L138.382 28.9104L138.405 29.8033L138.429 30.6961L139.013 30.7982C140.28 31.0194 141.651 30.8964 142.603 30.4762C144.055 29.835 145.135 28.3901 146.107 25.7882C146.227 25.4674 146.378 25.0736 146.442 24.9132C146.559 24.6238 146.791 24.0179 147.201 22.9344C147.318 22.6247 147.466 22.2401 147.53 22.0797C147.775 21.4681 148.431 19.7602 148.667 19.1212C149.008 18.1983 149.312 17.4198 149.453 17.1086C149.519 16.9642 149.573 16.8057 149.573 16.7566C149.573 16.7075 149.646 16.5069 149.736 16.3109C149.879 15.9976 150.479 14.4517 151.039 12.9543C151.617 11.4097 152.229 9.82817 152.371 9.51383C152.439 9.36332 152.494 9.2029 152.494 9.15739C152.494 9.10539 152.041 9.08322 151.274 9.09772L150.055 9.12081L149.853 9.6625C149.742 9.96043 149.594 10.3729 149.524 10.5792C149.454 10.7855 149.363 11.0292 149.32 11.1209C149.278 11.2126 149.191 11.4376 149.127 11.6209C149.009 11.9559 148.055 14.5687 147.68 15.5794C147.569 15.8774 147.428 16.2711 147.365 16.4545C147.075 17.3041 146.476 18.9714 146.406 19.1212C146.363 19.2129 146.213 19.6442 146.073 20.0796C145.932 20.5151 145.745 21.0953 145.656 21.3691C145.568 21.6429 145.46 21.8789 145.416 21.8936C145.371 21.9083 145.31 21.7851 145.279 21.6199C145.137 20.8671 144.46 18.8803 143.604 16.7045C143.315 15.9711 142.941 15.0148 142.773 14.5794C142.605 14.1439 142.414 13.6695 142.347 13.5251C142.281 13.3807 142.227 13.21 142.227 13.1459C142.227 13.0817 142.195 12.9936 142.156 12.9501C142.116 12.9066 141.945 12.496 141.775 12.0376C141.604 11.5792 141.396 11.0355 141.311 10.8292C141.227 10.623 141.06 10.2174 140.941 9.92784C140.822 9.63833 140.724 9.35174 140.724 9.2909C140.724 9.23006 140.665 9.15756 140.592 9.12973C140.415 9.06197 138.22 9.06464 138.22 9.13264ZM152.661 9.11031C152.661 9.17314 152.919 9.87801 153.031 10.1209C153.225 10.5433 153.421 11.0182 153.581 11.4542C153.752 11.9183 154.357 13.3937 154.544 13.8003C154.61 13.9447 154.664 14.0874 154.664 14.1174C154.664 14.1474 154.737 14.3314 154.826 14.5263C154.915 14.7212 155.212 15.441 155.486 16.1259C156.23 17.9854 157.663 21.5027 157.792 21.788C158.148 22.5738 158.754 24.1346 158.754 24.2638C158.754 24.347 158.684 24.5739 158.599 24.7682C158.513 24.9625 158.341 25.384 158.217 25.7049C157.705 27.0252 157.469 27.4416 156.911 28.0121C156.316 28.6207 155.91 28.8407 155.081 29.0034C154.59 29.0998 153.446 29.0685 153.016 28.947C152.829 28.8943 152.828 28.8998 152.828 29.812V30.73L153.224 30.7781C155.385 31.0403 156.585 30.8531 157.795 30.0649C158.589 29.5473 159.422 28.4185 160.012 27.0604C160.157 26.7274 160.325 26.3424 160.385 26.2049C160.446 26.0674 160.595 25.6924 160.716 25.3715C160.837 25.0507 160.988 24.6569 161.052 24.4965C161.115 24.3361 161.263 23.9519 161.381 23.6428C161.499 23.3337 161.685 22.8462 161.794 22.5594C161.904 22.2726 162.111 21.7193 162.255 21.3297C162.4 20.9401 162.552 20.5463 162.594 20.4546C162.637 20.363 162.805 19.9317 162.968 19.4963C163.132 19.0608 163.321 18.5814 163.389 18.4309C163.457 18.2804 163.512 18.1173 163.512 18.0685C163.512 18.0196 163.567 17.8615 163.633 17.7171C163.699 17.5727 163.888 17.0982 164.053 16.6628C164.219 16.2274 164.39 15.7961 164.435 15.7044C164.48 15.6128 164.551 15.4253 164.593 15.2877C164.636 15.1502 164.882 14.494 165.142 13.8293C165.401 13.1647 165.643 12.5224 165.681 12.402C165.718 12.2814 165.804 12.0564 165.872 11.9019C166.026 11.5512 166.809 9.52041 166.888 9.26665L166.946 9.07914H165.743H164.539L164.411 9.39165C164.264 9.749 164.03 10.3798 163.429 12.0376C163.197 12.6793 162.97 13.2793 162.925 13.371C162.881 13.4627 162.791 13.7064 162.726 13.9127C162.661 14.1189 162.51 14.5502 162.389 14.8711C162.158 15.4894 161.98 15.9765 161.445 17.4545C161.263 17.9587 161.091 18.4275 161.062 18.4962C161.034 18.565 160.771 19.351 160.477 20.243C160.184 21.1348 159.901 21.8786 159.85 21.8958C159.798 21.9129 159.756 21.8681 159.756 21.7962C159.756 21.7244 159.666 21.3556 159.556 20.9767C159.365 20.3215 159.235 19.9253 158.837 18.7879C158.609 18.1362 157.609 15.5557 157.408 15.1012C157.322 14.9068 157.252 14.7201 157.252 14.6863C157.252 14.6525 157.123 14.3051 156.965 13.9145C156.807 13.5239 156.542 12.8481 156.377 12.4126C156.212 11.9772 156.043 11.5459 156.001 11.4542C155.959 11.3626 155.73 10.7906 155.491 10.1834L155.057 9.07914H153.859C153.2 9.07914 152.661 9.09314 152.661 9.11031ZM91.0005 11.0141C91.7982 11.3171 92.2743 11.7708 92.6863 12.621C93.0002 13.2684 93.1026 13.6641 93.1881 14.5585L93.2458 15.1627H89.2445C87.0439 15.1627 85.2224 15.1419 85.1969 15.1164C85.1148 15.0345 85.4579 13.637 85.6868 13.121C85.9641 12.496 86.5312 11.7643 86.992 11.4368C88.0721 10.6694 89.6535 10.5026 91.0005 11.0141ZM106.668 10.8478C107.094 10.9756 107.691 11.2877 107.993 11.5412C108.668 12.1091 109.165 13.2642 109.235 14.4335L109.279 15.1627H105.26C102.063 15.1627 101.242 15.1411 101.242 15.0567C101.242 14.7313 101.697 13.2404 101.93 12.802C102.344 12.0224 103.079 11.326 103.788 11.0411C104.654 10.693 105.876 10.611 106.668 10.8478ZM16.5347 16.8379C17.2662 16.9897 18.4223 17.6012 18.9173 18.0983C19.5627 18.7463 19.7299 18.9784 20.1962 19.8739C20.4288 20.3204 20.6689 20.7649 20.7299 20.8618C20.7908 20.9587 20.93 21.2068 21.0391 21.413C21.2261 21.7666 22.0878 23.2005 22.3609 23.6126C22.8874 24.4071 23.0118 24.6231 22.9761 24.6807C22.9537 24.7168 22.3209 24.7465 21.5699 24.7465H20.2045L20.0264 24.1423C19.383 21.9597 18.899 20.6814 18.4204 19.8999C17.9146 19.0744 17.0226 18.4845 16.0205 18.3129C14.0893 17.9823 12.2297 19.2994 11.9375 21.2047C11.8116 22.0254 11.9447 22.5825 12.6398 24.1451C12.8956 24.7199 12.8557 24.7557 11.9895 24.7288L11.2174 24.7048L10.9461 24.138C10.321 22.8318 10.1911 21.6144 10.5464 20.3907C11.0746 18.5706 12.3716 17.3151 14.1807 16.8724C14.7496 16.7331 15.9453 16.7156 16.5347 16.8379ZM16.3799 19.749C16.8779 19.9827 17.2069 20.349 17.5586 21.0613C17.8991 21.7509 18.6577 23.9775 18.7011 24.4147L18.7299 24.7048L17.916 24.7287L17.1022 24.7525V24.5139C17.1022 24.2333 16.6901 22.9514 16.3331 22.1214C15.8946 21.102 15.4193 20.8157 14.9696 21.3002C14.7132 21.5764 14.7116 21.8127 14.963 22.3116C15.2126 22.8072 15.7666 24.3796 15.7666 24.5926C15.7666 24.7407 15.7089 24.751 14.9949 24.7288L14.2232 24.7048L14.0329 24.1631C13.9282 23.8652 13.7059 23.3027 13.5387 22.9131C13.0616 21.8012 13.1294 21.0215 13.766 20.2977C14.2004 19.8036 14.6975 19.5881 15.4128 19.5835C15.8544 19.5807 16.1169 19.6256 16.3799 19.749ZM16.5153 26.8091C16.3545 27.0118 16.34 27.1008 16.3892 27.5799C16.6206 29.8295 16.6513 31.0844 16.5171 32.7973C16.4367 33.822 16.3542 34.3714 16.0549 35.872C15.8238 37.0314 15.8229 37.0985 16.0342 37.351C16.1395 37.477 16.343 37.6026 16.4864 37.6302C16.6982 37.6709 16.7937 37.6358 16.9957 37.4429C17.1984 37.2493 17.2764 37.059 17.4175 36.4137C17.9752 33.8631 18.1473 31.2621 17.9337 28.6129C17.7963 26.9095 17.649 26.5799 17.0248 26.5799C16.7668 26.5799 16.6582 26.6287 16.5153 26.8091ZM22.5058 27.5174C22.2624 27.702 22.2075 28.0316 22.2513 29.0456C22.2886 29.9085 22.2409 30.9528 21.9738 35.1288L21.92 35.9689L22.1942 36.1638C22.4532 36.3479 22.4871 36.3522 22.8103 36.2403C23.0221 36.167 23.1894 36.0427 23.2498 35.9136C23.386 35.623 23.5278 33.9374 23.5882 31.8894C23.6164 30.9366 23.6704 30.1378 23.7084 30.1144C23.7831 30.0682 23.8779 30.1609 24.9486 31.3268C26.1415 32.6258 26.2742 32.715 26.6486 32.4701C27.3802 31.9916 27.3329 31.8293 26.0585 30.4423C24.2643 28.4898 23.4335 27.6259 23.2482 27.5204C23.0159 27.3881 22.6782 27.3868 22.5058 27.5174Z" fill="white"/>
</svg>
